<svg xmlns="http://www.w3.org/2000/svg" width="500" height="500" viewBox="0 0 500 500" version="1.1">

<path d="M 130.624 113.539 C 130.281 114.432, 130.098 126.714, 130.218 140.832 L 130.436 166.500 130.968 139.500 C 131.261 124.650, 131.443 112.368, 131.374 112.207 C 131.304 112.046, 130.966 112.645, 130.624 113.539 M 217.750 112.750 C 250.338 112.896, 303.663 112.896, 336.250 112.750 C 368.838 112.604, 342.175 112.484, 277 112.484 C 211.825 112.484, 185.163 112.604, 217.750 112.750 M 141.436 140.500 C 141.436 154.800, 141.577 160.511, 141.748 153.191 C 141.919 145.871, 141.918 134.171, 141.747 127.191 C 141.575 120.211, 141.435 126.200, 141.436 140.500 M 154.667 115.667 C 153.371 116.962, 154.023 120.711, 155.829 122.345 C 157.509 123.866, 167.372 124, 277.257 124 C 384.651 124, 397.018 123.840, 398.429 122.429 C 399.293 121.564, 400 120.339, 400 119.706 C 400 119.073, 399.299 119.555, 398.443 120.777 L 396.887 123 277.066 123 C 146.421 123, 154.127 123.348, 155.244 117.506 C 155.757 114.819, 155.699 114.634, 154.667 115.667 M 425.481 227 C 425.481 280.625, 425.602 302.563, 425.750 275.750 C 425.898 248.937, 425.898 205.063, 425.750 178.250 C 425.602 151.438, 425.481 173.375, 425.481 227 M 414.239 233.905 L 414 319.310 411.750 317.412 C 409.846 315.806, 409.885 315.949, 412 318.338 L 414.500 321.162 414.761 278.081 C 414.904 254.386, 414.899 215.538, 414.750 191.750 C 414.600 167.963, 414.371 186.932, 414.239 233.905 M 75.571 167.571 C 74.707 168.436, 74.067 170.348, 74.150 171.821 L 74.300 174.500 74.715 171.761 C 74.944 170.254, 76.101 168.342, 77.288 167.511 C 78.474 166.680, 78.927 166, 78.294 166 C 77.661 166, 76.436 166.707, 75.571 167.571 M 216.655 167.829 C 214.809 169.869, 214.542 172.734, 215.987 175 C 216.648 176.037, 216.764 175.383, 216.362 172.883 C 215.877 169.860, 216.164 168.998, 218.113 167.633 C 219.396 166.735, 219.965 166, 219.377 166 C 218.790 166, 217.565 166.823, 216.655 167.829 M 399.079 173.200 C 399.036 174.135, 398.212 175.359, 397.250 175.920 C 396.288 176.481, 396.007 176.953, 396.628 176.970 C 398.278 177.014, 400.272 174.274, 399.673 172.784 C 399.341 171.957, 399.130 172.105, 399.079 173.200 M 130.480 269.500 C 130.480 320.650, 130.601 341.428, 130.750 315.674 C 130.898 289.920, 130.898 248.070, 130.750 222.674 C 130.601 197.278, 130.480 218.350, 130.480 269.500 M 141.480 269 C 141.480 319.875, 141.601 340.688, 141.750 315.250 C 141.898 289.812, 141.898 248.187, 141.750 222.750 C 141.601 197.312, 141.480 218.125, 141.480 269 M 297.903 215.750 C 368.587 215.937, 396.686 216.325, 397.653 217.127 C 399.346 218.532, 399.403 223.148, 397.750 225.002 C 396.687 226.194, 396.761 226.206, 398.250 225.079 C 400.534 223.351, 400.491 218.754, 398.171 216.655 C 396.492 215.135, 388.311 215.020, 297.921 215.245 L 199.500 215.490 297.903 215.750 M 155.655 217.829 C 154.745 218.835, 154 220.565, 154 221.674 C 154 223.676, 156.840 227, 158.551 227 C 159.043 227, 158.445 226.299, 157.223 225.443 C 154.360 223.439, 154.360 219.561, 157.223 217.557 C 158.445 216.701, 158.965 216, 158.377 216 C 157.790 216, 156.565 216.823, 155.655 217.829 M 248.750 226.750 C 275.837 226.898, 320.162 226.898, 347.250 226.750 C 374.337 226.602, 352.175 226.481, 298 226.481 C 243.825 226.481, 221.662 226.602, 248.750 226.750 M 178.317 267.749 C 189.766 267.910, 208.216 267.909, 219.317 267.749 C 230.418 267.588, 221.050 267.456, 198.500 267.457 C 175.950 267.457, 166.868 267.589, 178.317 267.749 M 306.179 268.749 C 320.853 268.905, 345.153 268.905, 360.179 268.749 C 375.206 268.594, 363.200 268.466, 333.500 268.466 C 303.800 268.466, 291.506 268.593, 306.179 268.749 M 390.626 272.748 C 391.878 279.274, 394.508 278.975, 333.628 279.241 L 278.500 279.483 333.412 279.750 C 383.451 279.994, 388.487 279.870, 390.162 278.354 C 392.171 276.535, 392.528 273.352, 390.986 271 C 390.287 269.933, 390.183 270.438, 390.626 272.748 M 154.090 272.750 C 154.041 273.988, 154.900 275.900, 156 277 C 157.942 278.942, 159.175 278.993, 198.750 278.772 L 239.500 278.544 198 277.994 C 175.175 277.692, 156.400 277.344, 156.279 277.222 C 156.157 277.100, 155.635 275.538, 155.119 273.750 C 154.395 271.245, 154.160 271.015, 154.090 272.750 M 330.750 296.743 C 334.738 296.932, 341.262 296.932, 345.250 296.743 C 349.238 296.553, 345.975 296.397, 338 296.397 C 330.025 296.397, 326.762 296.553, 330.750 296.743 M 316.250 297.689 C 317.212 297.941, 318.788 297.941, 319.750 297.689 C 320.712 297.438, 319.925 297.232, 318 297.232 C 316.075 297.232, 315.288 297.438, 316.250 297.689 M 293 302.500 C 291.075 303.241, 290.175 303.848, 291 303.848 C 291.825 303.848, 294.075 303.241, 296 302.500 C 297.925 301.759, 298.825 301.152, 298 301.152 C 297.175 301.152, 294.925 301.759, 293 302.500 M 331.206 306.741 C 334.895 306.932, 341.195 306.934, 345.206 306.743 C 349.218 306.553, 346.200 306.396, 338.500 306.395 C 330.800 306.393, 327.518 306.549, 331.206 306.741 M 317.250 307.689 C 318.212 307.941, 319.788 307.941, 320.750 307.689 C 321.712 307.438, 320.925 307.232, 319 307.232 C 317.075 307.232, 316.288 307.438, 317.250 307.689 M 355.250 307.689 C 356.212 307.941, 357.788 307.941, 358.750 307.689 C 359.712 307.438, 358.925 307.232, 357 307.232 C 355.075 307.232, 354.288 307.438, 355.250 307.689 M 401 310.311 C 401 310.544, 402.913 311.996, 405.250 313.537 C 407.587 315.079, 408.972 315.701, 408.327 314.920 C 407.086 313.418, 401 309.589, 401 310.311 M 294.188 312.683 C 291.816 313.522, 290.052 314.385, 290.268 314.601 C 290.484 314.817, 293.099 314.128, 296.080 313.070 C 299.061 312.012, 300.825 311.149, 300 311.152 C 299.175 311.155, 296.559 311.844, 294.188 312.683 M 262.387 320.387 C 258.324 324.450, 255 328.343, 255 329.037 C 255 329.732, 256.289 328.521, 257.864 326.347 C 259.439 324.172, 263.144 320.280, 266.097 317.697 C 269.050 315.114, 271.085 313, 270.620 313 C 270.155 313, 266.450 316.324, 262.387 320.387 M 177.250 314.749 C 188.112 314.910, 205.887 314.910, 216.750 314.749 C 227.612 314.587, 218.725 314.455, 197 314.455 C 175.275 314.455, 166.387 314.587, 177.250 314.749 M 155.200 316.200 C 154.540 316.860, 154.061 318.547, 154.136 319.950 L 154.272 322.500 154.732 320 C 154.985 318.625, 155.654 316.938, 156.218 316.250 C 157.528 314.655, 156.782 314.618, 155.200 316.200 M 282.750 317.566 C 280.137 318.926, 278 320.262, 278 320.536 C 278 320.982, 287.900 316.306, 288.917 315.380 C 290.155 314.251, 286.901 315.405, 282.750 317.566 M 390.083 316.373 C 391.112 317.294, 397 319.999, 397 319.551 C 397 318.975, 391.456 316, 390.383 316 C 389.989 316, 389.854 316.168, 390.083 316.373 M 239 319.929 C 239 320.989, 238.293 322.564, 237.429 323.429 C 236.054 324.803, 231.024 325, 197.363 325 C 172.405 325, 158.100 324.629, 156.684 323.945 C 154.574 322.926, 154.566 322.943, 156.441 324.445 C 158.122 325.792, 163.581 326, 197.191 326 C 234.667 326, 236.069 325.931, 238 324 C 239.769 322.231, 240.826 318, 239.500 318 C 239.225 318, 239 318.868, 239 319.929 M 268.637 327.957 C 266.087 330.684, 264 333.234, 264 333.624 C 264 334.014, 264.143 334.146, 264.318 333.917 C 264.493 333.688, 266.805 331.137, 269.455 328.250 C 272.105 325.363, 274.049 323, 273.774 323 C 273.499 323, 271.187 325.231, 268.637 327.957 M 406.650 327.021 C 408.383 328.935, 410.744 332.075, 411.897 334 C 413.049 335.925, 413.994 337.005, 413.996 336.400 C 414.001 334.892, 408.825 327.939, 405.896 325.521 C 404.414 324.297, 404.701 324.869, 406.650 327.021 M 414.286 342.500 C 414.294 345.250, 414.488 346.256, 414.718 344.736 C 414.947 343.216, 414.941 340.966, 414.704 339.736 C 414.467 338.506, 414.279 339.750, 414.286 342.500 M 424.272 345 C 424.272 347.475, 424.467 348.488, 424.706 347.250 C 424.944 346.012, 424.944 343.988, 424.706 342.750 C 424.467 341.512, 424.272 342.525, 424.272 345 M 253.079 350.800 C 252.991 352.245, 255.766 358, 256.551 358 C 256.826 358, 256.427 356.762, 255.663 355.250 C 254.899 353.738, 254.023 351.825, 253.716 351 C 253.341 349.992, 253.132 349.927, 253.079 350.800 M 407.055 357.314 L 401.610 363.500 406.382 359 C 410.326 355.280, 413.937 350.806, 412.785 351.064 C 412.628 351.099, 410.050 353.912, 407.055 357.314 M 266.794 355.604 C 268.808 358.533, 273.675 362.725, 277 364.395 C 277.825 364.809, 277.150 364.125, 275.500 362.875 C 273.850 361.625, 270.736 358.779, 268.580 356.551 C 265.381 353.246, 265.052 353.071, 266.794 355.604 M 177.250 354.749 C 188.112 354.910, 205.887 354.910, 216.750 354.749 C 227.612 354.587, 218.725 354.455, 197 354.455 C 175.275 354.455, 166.387 354.587, 177.250 354.749 M 419.252 358.322 C 418.029 360.070, 416.292 362.512, 415.392 363.750 C 414.492 364.988, 413.943 366, 414.173 366 C 414.893 366, 422.286 355.953, 421.871 355.538 C 421.654 355.321, 420.475 356.573, 419.252 358.322 M 154.015 359.583 C 154.024 360.637, 154.487 362.175, 155.046 363 C 155.787 364.095, 155.880 363.691, 155.390 361.500 C 154.567 357.823, 153.995 357.025, 154.015 359.583 M 258.824 361.750 C 259.902 363.262, 261.819 365.400, 263.084 366.500 C 264.349 367.600, 263.627 366.363, 261.480 363.750 C 257.182 358.520, 255.757 357.447, 258.824 361.750 M 177.684 365.748 C 188.235 365.910, 205.785 365.911, 216.684 365.749 C 227.583 365.587, 218.950 365.455, 197.500 365.455 C 176.050 365.454, 167.133 365.587, 177.684 365.748 M 279 365.493 C 279 366.170, 287.123 370.211, 287.575 369.758 C 287.785 369.549, 285.941 368.398, 283.478 367.202 C 281.015 366.005, 279 365.236, 279 365.493 M 408.500 369.649 C 405.489 372.340, 405.263 372.713, 407.589 371.158 C 410.353 369.310, 413.829 365.941, 412.872 366.038 C 412.668 366.058, 410.700 367.683, 408.500 369.649 M 267.183 369.565 C 268.109 370.629, 270.359 372.351, 272.183 373.392 C 276.098 375.625, 275.066 374.517, 269.500 370.510 C 267.173 368.835, 266.204 368.440, 267.183 369.565 M 383.500 371.535 C 380.999 372.740, 380.916 372.878, 383 372.369 C 385.834 371.677, 389.018 370.053, 387.500 370.076 C 386.950 370.084, 385.150 370.740, 383.500 371.535 M 322.750 378.706 C 323.988 378.944, 326.012 378.944, 327.250 378.706 C 328.488 378.467, 327.475 378.272, 325 378.272 C 322.525 378.272, 321.512 378.467, 322.750 378.706 M 349.750 378.706 C 350.988 378.944, 353.012 378.944, 354.250 378.706 C 355.488 378.467, 354.475 378.272, 352 378.272 C 349.525 378.272, 348.512 378.467, 349.750 378.706 M 336.762 379.707 C 338.006 379.946, 339.806 379.937, 340.762 379.687 C 341.718 379.437, 340.700 379.241, 338.500 379.252 C 336.300 379.263, 335.518 379.468, 336.762 379.707 M 313.250 387.689 C 314.212 387.941, 315.788 387.941, 316.750 387.689 C 317.712 387.438, 316.925 387.232, 315 387.232 C 313.075 387.232, 312.288 387.438, 313.250 387.689 M 360.250 387.689 C 361.212 387.941, 362.788 387.941, 363.750 387.689 C 364.712 387.438, 363.925 387.232, 362 387.232 C 360.075 387.232, 359.288 387.438, 360.250 387.689 M 321.264 388.718 C 322.784 388.947, 325.034 388.941, 326.264 388.704 C 327.494 388.467, 326.250 388.279, 323.500 388.286 C 320.750 388.294, 319.744 388.488, 321.264 388.718 M 350.750 388.706 C 351.988 388.944, 354.012 388.944, 355.250 388.706 C 356.488 388.467, 355.475 388.272, 353 388.272 C 350.525 388.272, 349.512 388.467, 350.750 388.706" stroke="none" fill="#758dbc" fill-rule="evenodd"/><path d="M 132.571 112.571 C 131.224 113.919, 131 117.833, 131 140.071 L 131 166 105.223 166 C 83.510 166, 79.095 166.246, 77.223 167.557 C 74.370 169.555, 74.200 174.502, 76.934 175.965 C 78.126 176.602, 88.879 177, 104.934 177 L 131 177 131 269.965 C 131 360.853, 131.043 362.953, 132.934 363.965 C 135.647 365.417, 137.602 365.255, 139.429 363.429 C 140.834 362.023, 141 352.121, 141 269.429 L 141 177 172.277 177 C 199.303 177, 203.865 176.783, 205.835 175.403 C 208.862 173.283, 208.422 169.011, 205 167.288 C 203.155 166.359, 194.444 166.026, 171.750 166.015 L 141 166 141 140.155 C 141 116.387, 140.853 114.177, 139.171 112.655 C 136.875 110.577, 134.595 110.548, 132.571 112.571 M 417.213 112.117 C 415.996 112.567, 414.937 113.738, 414.861 114.718 C 414.784 115.698, 414.838 162.594, 414.981 218.931 L 415.240 321.362 411.214 317.931 C 400.653 308.934, 384.152 302.179, 364.559 298.833 C 354.222 297.068, 349.786 296.851, 333.500 297.312 C 308.427 298.023, 291.966 301.814, 276.570 310.423 C 246.737 327.107, 244.513 353.822, 271.458 371.844 C 309.328 397.172, 385.371 393.394, 414.004 364.761 C 420.096 358.668, 423.063 352.949, 424.126 345.246 C 425.343 336.426, 425.199 116.240, 423.974 113.952 C 422.826 111.806, 420.073 111.059, 417.213 112.117 M 156.571 114.571 C 154.706 116.436, 154.517 120.117, 156.200 121.800 C 157.120 122.720, 185.343 123, 277.143 123 L 396.887 123 398.443 120.777 C 400.447 117.917, 400.408 117.408, 398 115 C 396.022 113.022, 394.667 113, 277.071 113 C 170.288 113, 157.982 113.160, 156.571 114.571 M 218.245 167.541 C 215.631 169.372, 215.307 173.164, 217.571 175.429 C 218.976 176.833, 228.498 177, 307.380 177 C 379.155 177, 395.957 176.752, 397.434 175.672 C 399.480 174.176, 399.858 169.458, 398.075 167.675 C 397.197 166.797, 374.617 166.433, 308.695 166.234 C 229.822 165.996, 220.253 166.135, 218.245 167.541 M 157.223 217.557 C 156 218.413, 155 220.158, 155 221.434 C 155 226.758, 149.016 226.528, 277.404 226.141 C 355.793 225.904, 396.927 225.435, 397.750 224.768 C 399.341 223.479, 399.372 218.772, 397.800 217.200 C 396.880 216.280, 368.916 216, 278.023 216 C 172.319 216, 159.204 216.169, 157.223 217.557 M 156.250 269.091 C 155.563 269.811, 155 271.403, 155 272.629 C 155 277.938, 151.608 277.703, 239.200 278.446 C 283.915 278.825, 335.976 278.992, 354.891 278.818 C 385.063 278.539, 389.406 278.304, 390.289 276.905 C 391.655 274.737, 390.397 270.250, 388.248 269.627 C 387.286 269.349, 334.975 268.820, 272 268.452 C 178.289 267.904, 157.273 268.020, 156.250 269.091 M 319 307.029 C 307.663 308.613, 293.031 312.814, 284.544 316.922 C 250.474 333.413, 255.609 359.548, 295.543 372.905 C 319.840 381.032, 352.922 381.409, 378.500 373.850 C 394.454 369.135, 409.183 359.208, 413.137 350.505 C 421.032 333.125, 401.566 315.758, 366 308.451 C 357.051 306.612, 328.227 305.740, 319 307.029 M 156.200 316.200 C 154.299 318.101, 154.742 322.792, 156.934 323.965 C 158.172 324.627, 172.740 325, 197.363 325 C 231.024 325, 236.054 324.803, 237.429 323.429 C 239.294 321.564, 239.483 317.883, 237.800 316.200 C 236.076 314.476, 157.924 314.476, 156.200 316.200 M 156.200 356.200 C 154.517 357.883, 154.706 361.564, 156.571 363.429 C 157.947 364.804, 163.042 365, 197.371 365 C 226.549 365, 236.907 364.693, 237.800 363.800 C 238.460 363.140, 239 361.430, 239 360 C 239 358.570, 238.460 356.860, 237.800 356.200 C 236.076 354.476, 157.924 354.476, 156.200 356.200" stroke="none" fill="#2c5494" fill-rule="evenodd"/>
</svg>